<?xml version="1.0" standalone="no"?>
<!DOCTYPE svg PUBLIC "-//W3C//DTD SVG 20010904//EN"
 "http://www.w3.org/TR/2001/REC-SVG-20010904/DTD/svg10.dtd">
<svg version="1.0" xmlns="http://www.w3.org/2000/svg"
 width="500.000000pt" height="500.000000pt" viewBox="0 0 500.000000 500.000000"
 preserveAspectRatio="xMidYMid meet">

<g transform="translate(0.000000,500.000000) scale(0.100000,-0.100000)"
fill="#000000" stroke="none">
<path d="M3200 2739 l0 -141 -30 25 c-65 55 -173 61 -253 14 -165 -97 -154
-368 18 -452 47 -23 65 -27 120 -23 54 3 70 9 104 36 22 18 42 32 45 32 2 0 6
-12 8 -27 3 -27 6 -28 61 -31 l57 -3 0 356 0 355 -65 0 -65 0 0 -141z m-69
-194 c93 -48 93 -212 0 -260 -64 -32 -145 -11 -181 48 -24 39 -26 116 -5 158
32 62 121 87 186 54z"/>
<path d="M3476 2859 c-54 -43 -21 -119 52 -119 47 0 75 27 75 72 0 61 -74 89
-127 47z"/>
<path d="M3823 2861 c-50 -23 -69 -56 -79 -139 -6 -60 -8 -62 -35 -62 -28 0
-29 -1 -29 -55 0 -54 0 -55 30 -55 l30 0 0 -190 0 -190 65 0 65 0 0 189 0 190
53 3 52 3 3 53 3 52 -55 0 -56 0 0 38 c0 50 17 70 60 74 35 3 35 3 38 56 l3
52 -53 0 c-30 0 -71 -9 -95 -19z"/>
<path d="M555 2652 c-64 -30 -95 -74 -95 -134 0 -43 4 -54 31 -79 17 -16 56
-36 87 -45 147 -42 157 -47 160 -79 5 -38 -19 -55 -76 -55 -35 0 -49 6 -73 29
-24 25 -38 30 -89 33 -69 4 -72 -2 -38 -64 14 -24 41 -51 68 -66 40 -24 56
-27 135 -27 78 0 95 3 129 24 70 44 96 124 61 191 -19 37 -51 54 -152 81 -92
25 -123 42 -123 69 0 25 29 40 79 40 30 0 44 -6 59 -25 17 -21 28 -25 76 -25
34 0 56 4 56 11 0 29 -37 83 -72 106 -53 36 -164 43 -223 15z"/>
<path d="M1185 2651 c-22 -10 -46 -25 -54 -34 -19 -24 -29 -21 -33 11 -3 26
-6 27 -60 30 l-58 3 0 -356 0 -356 63 3 62 3 5 138 5 139 23 -25 c13 -14 43
-30 68 -37 103 -29 212 13 269 104 27 45 30 57 30 135 0 96 -16 140 -69 193
-65 66 -170 86 -251 49z m126 -106 c93 -48 93 -212 0 -260 -64 -32 -145 -11
-181 48 -24 39 -26 116 -5 158 32 62 121 87 186 54z"/>
<path d="M1765 2655 c-48 -19 -99 -66 -128 -120 -17 -32 -22 -57 -22 -126 0
-78 3 -90 30 -135 81 -130 284 -154 387 -46 32 34 58 72 58 86 0 3 -28 6 -62
6 -53 0 -66 -4 -88 -25 -53 -51 -153 -37 -185 26 -31 59 -32 58 168 61 l182 3
3 33 c8 84 -51 187 -131 229 -44 23 -161 27 -212 8z m150 -99 c30 -13 65 -58
65 -86 0 -6 -43 -10 -120 -10 -77 0 -120 4 -120 10 0 27 34 73 63 85 41 18 70
18 112 1z"/>
<path d="M2422 2655 c-19 -8 -47 -29 -63 -46 l-29 -31 0 41 0 41 -60 0 -60 0
0 -245 0 -245 65 0 65 0 0 144 c0 80 4 156 10 171 18 48 58 75 109 75 94 0
111 -37 111 -247 l0 -143 60 0 60 0 0 178 c0 192 -9 231 -61 279 -49 44 -141
57 -207 28z"/>
<path d="M3460 2415 l0 -245 65 0 65 0 0 245 0 245 -65 0 -65 0 0 -245z"/>
<path d="M4076 2553 c25 -60 68 -163 96 -230 28 -67 56 -123 63 -125 9 -2 -3
-39 -41 -121 -30 -65 -54 -120 -54 -123 0 -3 30 -4 67 -2 l66 3 154 349 c84
192 153 351 153 353 0 2 -30 3 -66 1 l-66 -3 -69 -165 c-38 -90 -71 -165 -73
-167 -1 -1 -33 74 -70 167 l-68 170 -69 0 -68 0 45 -107z"/>
</g>
</svg>
