<?xml version="1.0" standalone="no"?>
<!DOCTYPE svg PUBLIC "-//W3C//DTD SVG 20010904//EN"
 "http://www.w3.org/TR/2001/REC-SVG-20010904/DTD/svg10.dtd">
<svg version="1.0" xmlns="http://www.w3.org/2000/svg"
 width="500.000000pt" height="500.000000pt" viewBox="0 0 500.000000 500.000000"
 preserveAspectRatio="xMidYMid meet">

<g transform="translate(0.000000,500.000000) scale(0.100000,-0.100000)"
fill="#000000" stroke="none">
<path d="M3377 2843 c-4 -3 -7 -78 -7 -166 l0 -159 -34 30 c-47 41 -96 55
-175 50 -157 -12 -256 -124 -256 -293 0 -62 5 -91 23 -130 48 -105 139 -165
250 -165 70 0 112 14 158 53 18 15 34 27 37 27 3 0 7 -15 9 -32 l3 -33 68 -3
67 -3 0 409 c0 365 -2 411 -16 416 -21 8 -119 8 -127 -1z m-76 -396 c51 -34
71 -80 67 -154 -6 -100 -65 -157 -159 -156 -125 2 -197 137 -136 253 28 54 75
80 143 80 36 0 61 -6 85 -23z"/>
<path d="M3712 2838 c-60 -16 -75 -99 -24 -138 28 -22 88 -26 113 -7 40 30 48
99 14 127 -23 19 -69 27 -103 18z"/>
<path d="M4148 2840 c-103 -18 -148 -75 -148 -190 l0 -60 -40 0 -40 0 0 -60 0
-60 40 0 40 0 0 -225 0 -226 73 3 72 3 2 220 2 220 60 3 61 3 0 59 0 59 -62 3
-63 3 3 50 c4 61 10 67 64 74 l43 6 0 60 c0 60 0 60 -30 62 -16 0 -51 -3 -77
-7z"/>
<path d="M305 2588 c-77 -27 -125 -87 -125 -158 0 -90 41 -124 204 -168 110
-30 126 -40 126 -79 0 -44 -51 -70 -117 -60 -38 6 -83 41 -83 64 0 10 -19 13
-75 13 -85 0 -89 -4 -55 -70 39 -77 122 -119 235 -120 92 0 138 14 185 56 45
41 64 90 57 146 -11 79 -50 109 -197 148 -113 30 -140 44 -140 75 0 58 123 73
165 21 19 -23 28 -26 89 -26 65 0 67 1 60 23 -20 67 -65 113 -133 136 -42 14
-155 13 -196 -1z"/>
<path d="M1034 2586 c-17 -7 -47 -28 -67 -46 l-37 -32 0 25 c0 51 -8 57 -76
57 l-64 0 0 -410 0 -410 75 0 75 0 0 162 0 162 21 -23 c61 -65 195 -81 287
-35 162 80 208 308 94 459 -51 67 -115 99 -207 103 -44 1 -81 -3 -101 -12z
m144 -136 c92 -56 106 -193 28 -269 -62 -61 -170 -58 -225 4 -73 84 -58 211
31 265 44 27 122 27 166 0z"/>
<path d="M1704 2584 c-58 -21 -120 -78 -151 -138 -23 -44 -27 -63 -28 -141 0
-103 19 -157 75 -213 52 -53 105 -75 193 -80 93 -6 150 13 209 66 33 30 78 97
78 117 0 3 -32 5 -72 5 -68 0 -73 -2 -98 -32 -22 -26 -34 -32 -81 -36 -40 -3
-65 1 -88 12 -36 19 -71 70 -71 104 l0 22 216 0 217 0 -5 63 c-9 110 -61 192
-153 240 -52 27 -182 33 -241 11z m201 -136 c19 -18 37 -45 41 -60 l6 -28
-141 0 c-92 0 -141 4 -141 10 0 6 7 24 15 41 23 44 71 69 133 69 45 0 57 -4
87 -32z"/>
<path d="M2472 2589 c-18 -6 -51 -28 -72 -51 -37 -38 -40 -39 -40 -17 0 63 -8
69 -76 69 l-64 0 0 -285 0 -285 75 0 75 0 0 173 c0 144 3 178 18 206 34 68
107 96 175 67 59 -24 67 -55 67 -266 l0 -180 76 0 76 0 -4 208 c-4 221 -11
256 -61 311 -50 54 -156 75 -245 50z"/>
<path d="M3670 2305 l0 -285 75 0 75 0 0 285 0 285 -75 0 -75 0 0 -285z"/>
<path d="M4359 2523 c94 -224 184 -440 188 -450 3 -7 11 -13 19 -13 8 0 14 -4
14 -9 0 -6 -27 -69 -60 -142 -33 -72 -60 -134 -60 -136 0 -2 35 -3 77 -1 l77
3 178 404 c98 222 178 406 178 408 0 2 -35 3 -77 1 l-78 -3 -80 -192 c-44
-106 -82 -193 -85 -193 -3 0 -39 87 -81 193 l-77 192 -80 3 -81 3 28 -68z"/>
</g>
</svg>
