<?xml version="1.0" standalone="no"?>
<!DOCTYPE svg PUBLIC "-//W3C//DTD SVG 20010904//EN"
 "http://www.w3.org/TR/2001/REC-SVG-20010904/DTD/svg10.dtd">
<svg version="1.0" xmlns="http://www.w3.org/2000/svg"
 width="141.000000pt" height="48.000000pt" viewBox="0 0 141.000000 48.000000"
 preserveAspectRatio="xMidYMid meet">

<g transform="translate(0.000000,48.000000) scale(0.100000,-0.100000)"
fill="#000000" stroke="none">
<path d="M0 240 l0 -240 705 0 705 0 0 240 0 240 -705 0 -705 0 0 -240z m1070
165 c15 -18 -2 -45 -30 -45 -23 0 -34 28 -19 46 15 18 33 18 49 -1z m-100 -32
c0 -34 -18 -161 -26 -186 -4 -13 -14 -17 -32 -16 -15 2 -33 0 -40 -5 -23 -14
-59 3 -72 34 -26 64 26 149 84 138 21 -4 25 0 31 29 5 27 11 33 30 33 21 0 25
-5 25 -27z m260 12 c0 -9 -7 -18 -15 -20 -8 -3 -22 -7 -31 -10 -27 -9 -9 -17
38 -19 40 -1 43 -3 46 -31 6 -57 12 -61 32 -17 15 33 24 42 45 42 14 0 25 -3
24 -7 0 -5 -17 -46 -38 -93 -37 -83 -80 -130 -117 -130 -25 0 -15 36 13 49 16
7 23 15 16 19 -6 4 -16 41 -24 82 -7 41 -14 67 -17 58 -2 -10 -10 -18 -17 -18
-15 0 -19 -12 -30 -73 -9 -58 -26 -87 -57 -103 -25 -13 -29 -13 -34 1 -4 9 1
24 9 33 19 20 40 135 26 140 -16 6 -10 52 6 52 8 0 15 5 15 12 0 6 7 20 17 30
21 23 93 26 93 3z m-1029 -56 c30 -16 6 -40 -32 -32 -18 3 -29 1 -29 -6 0 -6
6 -11 14 -11 7 0 25 -9 38 -20 14 -10 29 -16 33 -12 4 4 2 -4 -5 -18 -7 -14
-16 -31 -20 -39 -14 -31 -80 -37 -119 -12 -12 8 -12 12 -2 25 10 11 19 13 38
5 43 -16 49 6 9 29 -80 47 -6 135 75 91z m195 -14 c35 -53 -18 -155 -80 -155
-15 0 -25 -9 -33 -30 -13 -34 -53 -43 -53 -12 0 37 23 187 30 202 6 11 25 16
65 17 48 1 58 -2 71 -22z m176 8 c10 -9 18 -24 18 -34 0 -21 -45 -59 -71 -59
-10 0 -21 -5 -25 -12 -5 -8 3 -9 29 -5 27 4 37 2 41 -10 7 -18 8 -17 -21 -32
-32 -16 -57 -14 -87 10 -20 16 -26 29 -26 60 0 77 90 129 142 82z m104 6 c4
-8 9 -8 17 0 15 15 50 14 65 -1 15 -15 15 -42 1 -108 -9 -42 -14 -50 -34 -50
-19 0 -23 6 -27 40 -2 22 0 40 4 40 5 0 8 9 8 20 0 11 -5 20 -11 20 -6 0 -8
-7 -5 -16 3 -8 2 -12 -4 -9 -11 7 -16 -3 -25 -57 -5 -33 -10 -38 -32 -38 -26
0 -26 0 -20 65 4 36 11 74 17 85 12 22 35 26 46 9z m386 6 c3 -3 1 -31 -4 -63
-14 -98 -16 -102 -44 -102 l-26 0 6 68 c10 92 14 102 40 102 12 0 25 -2 28 -5z"/>
<path d="M872 288 c-7 -7 -12 -19 -11 -27 0 -9 5 -5 11 9 10 24 10 24 18 5 7
-16 9 -17 9 -3 1 22 -13 30 -27 16z"/>
<path d="M873 234 c-5 -13 -7 -13 -14 -2 -7 10 -9 9 -9 -5 0 -24 32 -19 36 6
3 21 -5 22 -13 1z"/>
<path d="M323 293 c-19 -7 -16 -38 5 -54 9 -7 14 -10 10 -5 -4 5 -3 18 3 28
12 22 2 38 -18 31z m11 -28 c-4 -8 -8 -15 -10 -15 -2 0 -4 7 -4 15 0 8 4 15
10 15 5 0 7 -7 4 -15z"/>
<path d="M308 213 c7 -3 16 -2 19 1 4 3 -2 6 -13 5 -11 0 -14 -3 -6 -6z"/>
<path d="M499 284 c-12 -14 -11 -16 5 -13 11 2 21 10 24 17 5 17 -13 15 -29
-4z"/>
</g>
</svg>
